<?xml version="1.0" standalone="no"?>
<!DOCTYPE svg PUBLIC "-//W3C//DTD SVG 20010904//EN"
 "http://www.w3.org/TR/2001/REC-SVG-20010904/DTD/svg10.dtd">
<svg version="1.0" xmlns="http://www.w3.org/2000/svg"
 width="700.000000pt" height="700.000000pt" viewBox="0 0 700.000000 700.000000"
 preserveAspectRatio="xMidYMid meet">
<metadata>
Created by potrace 1.11, written by Peter Selinger 2001-2013
</metadata>
<g transform="translate(0.000000,700.000000) scale(0.100000,-0.100000)"
fill="#000000" stroke="none">
<path d="M1370 6986 c-62 -27 -163 -123 -365 -347 -22 -24 -70 -80 -105 -124
-36 -44 -68 -82 -71 -85 -9 -8 -139 -186 -200 -275 -338 -491 -553 -1029 -613
-1535 -13 -108 -14 -574 -2 -655 2 -16 7 -73 11 -125 4 -52 8 -97 10 -100 3
-5 9 -50 20 -140 3 -25 8 -52 10 -60 2 -8 7 -30 10 -47 13 -84 17 -102 30
-159 8 -34 16 -73 19 -85 3 -13 20 -80 40 -149 134 -482 344 -866 614 -1125
l63 -60 -1 -744 c0 -409 -2 -746 -5 -749 -3 -3 -139 -6 -303 -7 l-297 -1 -41
-26 c-77 -50 -110 -114 -102 -200 7 -63 49 -125 108 -158 l45 -24 3115 -1
3115 0 40 22 c89 48 132 144 106 239 -14 52 -42 88 -95 121 -44 28 -76 32
-268 33 l-98 0 0 747 0 747 64 61 c109 102 230 254 296 370 72 126 115 205
130 240 9 22 26 60 38 85 60 132 141 377 187 570 56 229 89 449 115 750 13
159 5 591 -14 710 -95 598 -368 1180 -821 1750 -188 236 -437 495 -512 531
-52 25 -116 23 -175 -5 -34 -17 -227 -204 -329 -321 -24 -27 -46 -52 -49 -55
-63 -63 -270 -336 -378 -500 -80 -120 -90 -137 -144 -234 l-32 -58 -23 28
c-13 16 -23 33 -23 37 0 24 -197 320 -324 487 -187 247 -490 575 -571 618 -18
10 -55 16 -96 17 -78 0 -105 -15 -219 -129 -169 -166 -409 -443 -490 -566 -8
-13 -24 -35 -36 -49 -37 -46 -171 -253 -228 -350 l-54 -94 -29 48 c-112 191
-280 438 -395 581 -180 224 -449 508 -512 541 -38 20 -132 25 -166 9z m1129
-4569 c24 -43 124 -199 141 -220 90 -114 235 -267 252 -267 5 0 8 -341 8 -757
l0 -758 -427 1 -428 0 -3 749 -2 748 74 71 c124 120 275 318 332 439 10 20 20
37 23 37 3 0 17 -19 30 -43z m2065 -10 c88 -158 201 -305 328 -426 l68 -65 0
-748 0 -748 -57 0 c-60 -1 -671 -1 -755 0 l-48 0 0 746 0 747 88 86 c101 100
215 248 287 373 28 48 52 87 55 88 3 0 18 -24 34 -53z"/>
</g>
</svg>
